# xmcd
# 
# Track frame offsets:
#     150
#     17970
#     38130
#     51430
#     69517
#     88608
#     104001
#     122011
#     144401
#     163028
#     184581
#     203178
#     221170
# 
# Disc length: 3182
# 
# Revision: 8
# Processed by: cddbd v1.5.2PL0 Copyright (c) Steve Scherf et al.
# Submitted via: fre:ac v1.0.31
# 
DISCID=c10c6c0d
DTITLE=Carrie Underwood - Greatest Hits: Decade #1 - Disc 2
DYEAR=2014
DGENRE=Country
TTITLE0=Cowboy Casanova
TTITLE1=Temporary Home
TTITLE2=Undo It
TTITLE3=Mama's Song
TTITLE4=Remind Me [duet with Brad Paisley]
TTITLE5=Good Girl
TTITLE6=Blown Away
TTITLE7=Two Black Cadillacs
TTITLE8=See You Again
TTITLE9=How Great Thou Art (with Vince Gill) [[Live from ACM Presents: Girls' Night Out]]
TTITLE10=So Small (Songwriting Session Worktape 1/24/07)
TTITLE11=Last Name (Songwriting Session Worktape 1/22/07)
TTITLE12=Mama's Song (Songwriting Session Worktape 2/5/09)
EXTD=
EXTT0=
EXTT1=
EXTT2=
EXTT3=
EXTT4=
EXTT5=
EXTT6=
EXTT7=
EXTT8=
EXTT9=
EXTT10=
EXTT11=
EXTT12=
PLAYORDER=
